<svg width="16" height="16" viewBox="0 0 16 16" fill="none" xmlns="http://www.w3.org/2000/svg">
<path d="M14.28 7.28134C14.3994 7.22869 14.5006 7.14218 14.5713 7.03254C14.642 6.9229 14.6789 6.79493 14.6776 6.6645C14.6762 6.53406 14.6366 6.40689 14.5637 6.29873C14.4908 6.19057 14.3878 6.10617 14.2674 6.056L8.55335 3.45334C8.37964 3.3741 8.19094 3.3331 8.00002 3.3331C7.80909 3.3331 7.62039 3.3741 7.44668 3.45334L1.73335 6.05334C1.61466 6.10532 1.5137 6.19076 1.4428 6.29921C1.3719 6.40767 1.33414 6.53443 1.33414 6.664C1.33414 6.79358 1.3719 6.92034 1.4428 7.02879C1.5137 7.13725 1.61466 7.22269 1.73335 7.27467L7.44668 9.88C7.62039 9.95924 7.80909 10.0002 8.00002 10.0002C8.19094 10.0002 8.37964 9.95924 8.55335 9.88L14.28 7.28134Z" stroke="#85C20C" stroke-width="1.33333" stroke-linecap="round" stroke-linejoin="round"/>
<path d="M14.6667 6.66667V10.6667" stroke="#85C20C" stroke-width="1.33333" stroke-linecap="round" stroke-linejoin="round"/>
<path d="M4 8.33333V10.6667C4 11.1971 4.42143 11.7058 5.17157 12.0809C5.92172 12.4559 6.93913 12.6667 8 12.6667C9.06087 12.6667 10.0783 12.4559 10.8284 12.0809C11.5786 11.7058 12 11.1971 12 10.6667V8.33333" stroke="#85C20C" stroke-width="1.33333" stroke-linecap="round" stroke-linejoin="round"/>
</svg>
