<svg width="16" height="16" viewBox="0 0 16 16" fill="none" xmlns="http://www.w3.org/2000/svg">
<g clip-path="url(#clip0_434_7759)">
<path d="M5.3335 9.33337C7.54264 9.33337 9.3335 7.54251 9.3335 5.33337C9.3335 3.12424 7.54264 1.33337 5.3335 1.33337C3.12436 1.33337 1.3335 3.12424 1.3335 5.33337C1.3335 7.54251 3.12436 9.33337 5.3335 9.33337Z" stroke="#3A6BFF" stroke-width="1.33333" stroke-linecap="round" stroke-linejoin="round"/>
<path d="M12.0597 6.91333C12.6899 7.14828 13.2507 7.53835 13.6902 8.04746C14.1297 8.55657 14.4338 9.16829 14.5742 9.82604C14.7147 10.4838 14.687 11.1663 14.4938 11.8106C14.3005 12.4548 13.948 13.0399 13.4687 13.5117C12.9894 13.9836 12.3989 14.327 11.7517 14.5101C11.1046 14.6933 10.4217 14.7103 9.76619 14.5596C9.11071 14.4089 8.50381 14.0954 8.00162 13.648C7.49943 13.2006 7.11816 12.6338 6.89307 12" stroke="#3A6BFF" stroke-width="1.33333" stroke-linecap="round" stroke-linejoin="round"/>
<path d="M4.6665 4H5.33317V6.66667" stroke="#3A6BFF" stroke-width="1.33333" stroke-linecap="round" stroke-linejoin="round"/>
<path d="M11.1399 9.2533L11.6066 9.72663L9.72656 11.6066" stroke="#3A6BFF" stroke-width="1.33333" stroke-linecap="round" stroke-linejoin="round"/>
</g>
<defs>
<clipPath id="clip0_434_7759">
<rect width="16" height="16" fill="white"/>
</clipPath>
</defs>
</svg>
