<svg width="14" height="14" viewBox="0 0 14 14" fill="none" xmlns="http://www.w3.org/2000/svg">
<path d="M7 7.58329V1.16663L11.6667 3.49996L7 5.83329" stroke="white" stroke-width="1.16667" stroke-linecap="round" stroke-linejoin="round"/>
<path d="M11.9937 5.96279C12.3042 6.91953 12.3332 7.94532 12.0774 8.9181C11.8216 9.89088 11.2918 10.7697 10.5509 11.45C9.81002 12.1303 8.8893 12.5835 7.89829 12.7556C6.90727 12.9277 5.88768 12.8115 4.96081 12.4208C4.03393 12.0301 3.2388 11.3814 2.67001 10.5518C2.10122 9.72223 1.78272 8.74672 1.75239 7.74133C1.72206 6.73594 1.98118 5.743 2.49893 4.88064C3.01668 4.01828 3.77126 3.3228 4.6729 2.87695" stroke="white" stroke-width="1.16667" stroke-linecap="round" stroke-linejoin="round"/>
<path d="M4.66773 5.83154C4.37543 6.22064 4.18513 6.67669 4.11417 7.15815C4.04322 7.63961 4.09387 8.13118 4.2615 8.58806C4.42913 9.04493 4.70842 9.45261 5.07392 9.77393C5.43942 10.0952 5.87952 10.32 6.35411 10.4277C6.8287 10.5354 7.3227 10.5227 7.7911 10.3906C8.2595 10.2586 8.68742 10.0114 9.03586 9.67167C9.3843 9.33193 9.64219 8.91039 9.78603 8.44547C9.92987 7.98056 9.95509 7.48704 9.8594 7.00988" stroke="white" stroke-width="1.16667" stroke-linecap="round" stroke-linejoin="round"/>
</svg>
