<svg width="22" height="22" viewBox="0 0 22 22" fill="none" xmlns="http://www.w3.org/2000/svg">
<g clip-path="url(#clip0_1639_1424)">
<path d="M11 22C17.0751 22 22 17.0751 22 11C22 4.92487 17.0751 0 11 0C4.92487 0 0 4.92487 0 11C0 17.0751 4.92487 22 11 22Z" fill="url(#paint0_linear_1639_1424)"/>
<path fill-rule="evenodd" clip-rule="evenodd" d="M4.97943 10.884C8.18615 9.48684 10.3245 8.56577 11.3944 8.12076C14.4492 6.85015 15.084 6.62944 15.4977 6.62215C15.5887 6.62055 15.7922 6.6431 15.9239 6.75004C16.0352 6.84034 16.0658 6.96232 16.0805 7.04793C16.0952 7.13354 16.1134 7.32857 16.0989 7.48097C15.9334 9.22033 15.2171 13.4413 14.8526 15.3894C14.6984 16.2137 14.3948 16.4901 14.1009 16.5172C13.4621 16.5759 12.977 16.095 12.3583 15.6894C11.3902 15.0548 10.8433 14.6598 9.9035 14.0405C8.81746 13.3248 9.5215 12.9314 10.1404 12.2886C10.3024 12.1203 13.1169 9.56031 13.1714 9.32808C13.1782 9.29903 13.1845 9.19077 13.1202 9.1336C13.0559 9.07643 12.961 9.09598 12.8925 9.11153C12.7954 9.13357 11.2488 10.1558 8.25261 12.1783C7.81361 12.4798 7.41597 12.6266 7.05971 12.6189C6.66695 12.6105 5.91144 12.3969 5.3498 12.2143C4.66093 11.9904 4.11342 11.872 4.1611 11.4917C4.18593 11.2936 4.45871 11.091 4.97943 10.884Z" fill="white"/>
</g>
<defs>
<linearGradient id="paint0_linear_1639_1424" x1="1100" y1="0" x2="1100" y2="2183.68" gradientUnits="userSpaceOnUse">
<stop stop-color="#2AABEE"/>
<stop offset="1" stop-color="#229ED9"/>
</linearGradient>
<clipPath id="clip0_1639_1424">
<rect width="22" height="22" fill="white"/>
</clipPath>
</defs>
</svg>
