<svg width="100%" height="100%" viewBox="0 0 22 22" fill="none" xmlns="http://www.w3.org/2000/svg">
<path d="M11.0312 11.6243C10.9982 11.5414 10.9901 11.4506 11.0081 11.3632C11.0261 11.2758 11.0694 11.1956 11.1325 11.1325C11.1956 11.0694 11.2758 11.0261 11.3632 11.0081C11.4506 10.9901 11.5414 10.9982 11.6243 11.0312L19.8743 14.2395C19.9627 14.2741 20.0383 14.3353 20.0904 14.4146C20.1426 14.494 20.1689 14.5876 20.1655 14.6825C20.1622 14.7774 20.1295 14.8689 20.0719 14.9444C20.0143 15.0199 19.9347 15.0757 19.844 15.104L16.687 16.083C16.5446 16.127 16.415 16.2051 16.3096 16.3105C16.2042 16.416 16.1261 16.5455 16.082 16.688L15.104 19.844C15.0757 19.9347 15.0199 20.0143 14.9444 20.0719C14.8689 20.1295 14.7774 20.1622 14.6825 20.1655C14.5876 20.1689 14.494 20.1426 14.4146 20.0904C14.3353 20.0383 14.2741 19.9627 14.2395 19.8743L11.0312 11.6243Z" stroke="#08090A" stroke-width="1.83333" stroke-linecap="round" stroke-linejoin="round"/>
<path d="M4.58335 15.5833C4.58335 12.6659 5.74228 9.86802 7.80518 7.80512C9.86808 5.74222 12.666 4.5833 15.5834 4.5833" stroke="#08090A" stroke-width="1.83333" stroke-linecap="round" stroke-linejoin="round"/>
<path d="M17.4167 6.41667C18.4292 6.41667 19.25 5.59586 19.25 4.58333C19.25 3.57081 18.4292 2.75 17.4167 2.75C16.4042 2.75 15.5834 3.57081 15.5834 4.58333C15.5834 5.59586 16.4042 6.41667 17.4167 6.41667Z" stroke="#08090A" stroke-width="1.83333" stroke-linecap="round" stroke-linejoin="round"/>
<path d="M4.58333 19.25C5.59586 19.25 6.41667 18.4292 6.41667 17.4166C6.41667 16.4041 5.59586 15.5833 4.58333 15.5833C3.57081 15.5833 2.75 16.4041 2.75 17.4166C2.75 18.4292 3.57081 19.25 4.58333 19.25Z" stroke="#08090A" stroke-width="1.83333" stroke-linecap="round" stroke-linejoin="round"/>
</svg>
