<svg width="100%" height="100%" viewBox="0 0 22 22" fill="none" xmlns="http://www.w3.org/2000/svg">
<path d="M10.5985 2.99384C10.6381 2.92197 10.6962 2.86205 10.7668 2.82031C10.8374 2.77858 10.918 2.75656 11 2.75656C11.082 2.75656 11.1626 2.77858 11.2332 2.82031C11.3038 2.86205 11.3619 2.92197 11.4015 2.99384L14.1075 8.13084C14.172 8.24978 14.2621 8.35297 14.3712 8.43299C14.4804 8.513 14.6059 8.56786 14.7387 8.59362C14.8716 8.61939 15.0085 8.61542 15.1396 8.582C15.2707 8.54858 15.3929 8.48654 15.4972 8.40034L19.4178 5.04167C19.493 4.98046 19.5858 4.9447 19.6826 4.93955C19.7795 4.9344 19.8755 4.96013 19.9568 5.01302C20.0382 5.06591 20.1006 5.14324 20.1352 5.23389C20.1698 5.32453 20.1747 5.4238 20.1493 5.51742L17.5514 14.9096C17.4984 15.1018 17.3841 15.2714 17.226 15.3929C17.0679 15.5143 16.8745 15.5808 16.6751 15.5824H5.32584C5.12631 15.581 4.93269 15.5146 4.77436 15.3931C4.61604 15.2717 4.50166 15.1019 4.44859 14.9096L1.85167 5.51834C1.82623 5.42472 1.83116 5.32544 1.86573 5.2348C1.90031 5.14416 1.96275 5.06683 2.04408 5.01394C2.1254 4.96104 2.22141 4.93532 2.31829 4.94047C2.41516 4.94562 2.50791 4.98137 2.58317 5.04259L6.50284 8.40125C6.60715 8.48746 6.72926 8.5495 6.86039 8.58291C6.99153 8.61633 7.12844 8.6203 7.26129 8.59454C7.39414 8.56878 7.51963 8.51392 7.62877 8.4339C7.73791 8.35389 7.82797 8.2507 7.8925 8.13175L10.5985 2.99384Z" stroke="#08090A" stroke-width="1.83333" stroke-linecap="round" stroke-linejoin="round"/>
<path d="M4.58331 19.25H17.4166" stroke="#08090A" stroke-width="1.83333" stroke-linecap="round" stroke-linejoin="round"/>
</svg>
