<svg width="100%" height="100%" viewBox="0 0 22 22" fill="none" xmlns="http://www.w3.org/2000/svg">
<g clip-path="url(#clip0_12_234)">
<path d="M13.75 16.5H9.16665" stroke="#08090A" stroke-width="1.83333" stroke-linecap="round" stroke-linejoin="round"/>
<path d="M16.5 12.8333H9.16665" stroke="#08090A" stroke-width="1.83333" stroke-linecap="round" stroke-linejoin="round"/>
<path d="M3.66668 20.1666H18.3334C18.8196 20.1666 19.2859 19.9735 19.6297 19.6297C19.9735 19.2858 20.1667 18.8195 20.1667 18.3333V3.66663C20.1667 3.1804 19.9735 2.71409 19.6297 2.37027C19.2859 2.02645 18.8196 1.8333 18.3334 1.8333H7.33335C6.84712 1.8333 6.38081 2.02645 6.03699 2.37027C5.69317 2.71409 5.50002 3.1804 5.50002 3.66663V18.3333C5.50002 18.8195 5.30686 19.2858 4.96305 19.6297C4.61923 19.9735 4.15291 20.1666 3.66668 20.1666ZM3.66668 20.1666C3.18045 20.1666 2.71414 19.9735 2.37032 19.6297C2.02651 19.2858 1.83335 18.8195 1.83335 18.3333V10.0833C1.83335 9.59707 2.02651 9.13075 2.37032 8.78694C2.71414 8.44312 3.18045 8.24996 3.66668 8.24996H5.50002" stroke="#08090A" stroke-width="1.83333" stroke-linecap="round" stroke-linejoin="round"/>
<path d="M15.5833 5.5H10.0833C9.57705 5.5 9.16665 5.91041 9.16665 6.41667V8.25C9.16665 8.75626 9.57705 9.16667 10.0833 9.16667H15.5833C16.0896 9.16667 16.5 8.75626 16.5 8.25V6.41667C16.5 5.91041 16.0896 5.5 15.5833 5.5Z" stroke="#08090A" stroke-width="1.83333" stroke-linecap="round" stroke-linejoin="round"/>
</g>
<defs>
<clipPath id="clip0_12_234">
<rect width="22" height="22" fill="white"/>
</clipPath>
</defs>
</svg>
