<svg width="100%" height="100%" viewBox="0 0 22 22" fill="none" xmlns="http://www.w3.org/2000/svg">
<path d="M12.0175 7.02533L13.6491 9.47466" stroke="#08090A" stroke-width="1.83333" stroke-linecap="round" stroke-linejoin="round"/>
<path d="M12.9818 11.7223L9.93481 13.0277" stroke="#08090A" stroke-width="1.83333" stroke-linecap="round" stroke-linejoin="round"/>
<path d="M18.3333 3.66666L12.7783 5.05541" stroke="#08090A" stroke-width="1.83333" stroke-linecap="round" stroke-linejoin="round"/>
<path d="M2.75 2.75V17.4167C2.75 17.9029 2.94315 18.3692 3.28697 18.713C3.63079 19.0568 4.0971 19.25 4.58333 19.25H19.25" stroke="#08090A" stroke-width="1.83333" stroke-linecap="round" stroke-linejoin="round"/>
<path d="M11 7.33332C12.0125 7.33332 12.8333 6.51251 12.8333 5.49999C12.8333 4.48747 12.0125 3.66666 11 3.66666C9.98744 3.66666 9.16663 4.48747 9.16663 5.49999C9.16663 6.51251 9.98744 7.33332 11 7.33332Z" stroke="#08090A" stroke-width="1.83333" stroke-linecap="round" stroke-linejoin="round"/>
<path d="M14.6667 12.8334C15.6792 12.8334 16.5 12.0125 16.5 11C16.5 9.9875 15.6792 9.16669 14.6667 9.16669C13.6542 9.16669 12.8334 9.9875 12.8334 11C12.8334 12.0125 13.6542 12.8334 14.6667 12.8334Z" stroke="#08090A" stroke-width="1.83333" stroke-linecap="round" stroke-linejoin="round"/>
<path d="M8.24996 15.5834C9.26248 15.5834 10.0833 14.7625 10.0833 13.75C10.0833 12.7375 9.26248 11.9167 8.24996 11.9167C7.23744 11.9167 6.41663 12.7375 6.41663 13.75C6.41663 14.7625 7.23744 15.5834 8.24996 15.5834Z" stroke="#08090A" stroke-width="1.83333" stroke-linecap="round" stroke-linejoin="round"/>
</svg>
