<svg width="100%" height="100%" viewBox="0 0 22 22" fill="none" xmlns="http://www.w3.org/2000/svg">
<path d="M16.5 19.25C16.5 17.3051 15.7274 15.4398 14.3521 14.0646C12.9769 12.6893 11.1116 11.9167 9.16668 11.9167C7.22176 11.9167 5.3565 12.6893 3.98123 14.0646C2.60597 15.4398 1.83335 17.3051 1.83335 19.25" stroke="#08090A" stroke-width="1.83333" stroke-linecap="round" stroke-linejoin="round"/>
<path d="M9.16668 11.9167C11.698 11.9167 13.75 9.86464 13.75 7.33333C13.75 4.80203 11.698 2.75 9.16668 2.75C6.63538 2.75 4.58335 4.80203 4.58335 7.33333C4.58335 9.86464 6.63538 11.9167 9.16668 11.9167Z" stroke="#08090A" stroke-width="1.83333" stroke-linecap="round" stroke-linejoin="round"/>
<path d="M20.1667 18.3333C20.1667 15.2441 18.3334 12.375 16.5001 11C17.1027 10.5478 17.5846 9.95413 17.9031 9.27138C18.2216 8.58863 18.3669 7.83789 18.3261 7.08562C18.2853 6.33334 18.0597 5.60271 17.6692 4.9584C17.2788 4.31409 16.7355 3.77596 16.0876 3.39163" stroke="#08090A" stroke-width="1.83333" stroke-linecap="round" stroke-linejoin="round"/>
</svg>
